<svg t="1593452466360" class="icon" viewBox="0 0 1024 1024" version="1.1" xmlns="http://www.w3.org/2000/svg" p-id="10846" width="200" height="200"><path d="M724.676923 118.153846c-23.630769 0-39.384615-15.753846-39.384615-39.384615s15.753846-39.384615 39.384615-39.384616H866.461538c63.015385 0 118.153846 55.138462 118.153847 118.153847v708.923076c0 63.015385-55.138462 118.153846-118.153847 118.153847H157.538462c-63.015385 0-118.153846-55.138462-118.153847-118.153847V157.538462C39.384615 94.523077 94.523077 39.384615 157.538462 39.384615h118.153846c23.630769 0 39.384615 15.753846 39.384615 39.384616s-15.753846 39.384615-39.384615 39.384615H157.538462c-23.630769 0-39.384615 15.753846-39.384616 39.384616v708.923076c0 23.630769 15.753846 39.384615 39.384616 39.384616h708.923076c23.630769 0 39.384615-15.753846 39.384616-39.384616V157.538462c0-23.630769-15.753846-39.384615-39.384616-39.384616H724.676923z" fill="#00CACA" p-id="10847"></path><path d="M472.615385 196.923077c0-23.630769 15.753846-39.384615 39.384615-39.384615s39.384615 15.753846 39.384615 39.384615v315.076923c0 23.630769-15.753846 39.384615-39.384615 39.384615S472.615385 535.630769 472.615385 512v-315.076923z" fill="#00CACA" p-id="10848"></path><path d="M535.630769 590.769231c-15.753846 15.753846-39.384615 7.876923-55.138461-7.876923-15.753846-7.876923-7.876923-31.507692 7.876923-47.261539l157.538461-133.907692c15.753846-15.753846 39.384615-7.876923 55.138462 7.876923 15.753846 15.753846 7.876923 39.384615-7.876923 55.138462l-157.538462 126.030769z" fill="#00CACA" p-id="10849"></path><path d="M488.369231 590.769231c15.753846 15.753846 39.384615 7.876923 55.138461-7.876923 15.753846-7.876923 7.876923-31.507692-7.876923-47.261539l-157.538461-133.907692c-15.753846-15.753846-39.384615-7.876923-55.138462 7.876923-15.753846 15.753846-7.876923 39.384615 7.876923 55.138462l157.538462 126.030769z" fill="#00CACA" p-id="10850"></path></svg>