<svg t="1593447458900" class="icon" viewBox="0 0 1024 1024" version="1.1" xmlns="http://www.w3.org/2000/svg" p-id="2338" width="200" height="200"><path d="M837.8 64H186.2C114.1 64 64 114.1 64 186.2v651.6C64 909.9 114.1 960 186.2 960h651.6c72.1 0 122.2-50.1 122.2-122.2V186.2C960 114.1 909.9 64 837.8 64z m0 570.2c0 16.4-24.3 40.7-40.7 40.7h-81.5c-33.4 0-40.7 54.3-40.7 40.7v81.5c0 16.4-24.3 40.7-40.7 40.7H389.8c-16.4 0-40.7-24.3-40.7-40.7v-81.5c0 13.6-0.3-40.7-40.7-40.7h-81.5c-16.4 0-40.7-24.3-40.7-40.7V226.9c0-16.4 24.3-40.7 40.7-40.7h570.2c16.4 0 40.7 24.3 40.7 40.7v407.3z" fill="#2EFEF7" p-id="2339"></path><path d="M674.9 471.3h-81.5V308.4c0-22.5-18.2-40.7-40.7-40.7h-81.5c-22.5 0-40.7 18.2-40.7 40.7v162.9H349c-22.5 0-27.8 12.9-11.9 28.8L512 674.9l174.8-174.8c15.9-15.9 10.6-28.8-11.9-28.8z" fill="#2EFEF7" p-id="2340"></path></svg>