<svg t="1610635812827" class="icon" viewBox="0 0 1451 1024" version="1.1" xmlns="http://www.w3.org/2000/svg" p-id="7217" width="200" height="200"><path d="M1425.449659 462.165516L759.897255 10.400277a60.477274 60.477274 0 0 0-62.291593-3.32625A60.477274 60.477274 0 0 0 665.25032 60.596415v337.463191L94.34485 10.400277A60.477274 60.477274 0 0 0 32.053258 7.074027 60.477274 60.477274 0 0 0 0.000302 60.596415v902.925706a60.477274 60.477274 0 0 0 60.477275 60.477274 60.477274 60.477274 0 0 0 33.867273-10.281136L665.25032 626.361316v337.160805a60.477274 60.477274 0 0 0 32.052956 53.522388 60.477274 60.477274 0 0 0 28.424319 6.954886 60.477274 60.477274 0 0 0 33.867273-10.281136l665.250018-451.462854a60.477274 60.477274 0 0 0 0-100.089889zM120.954851 849.522459V174.596077l497.123195 337.463191z m665.250018 0V174.596077l497.425582 337.463191z" fill="#13DFC5" p-id="7218"></path></svg>