<svg t="1580850432111" class="icon" viewBox="0 0 1239 1024" version="1.1" xmlns="http://www.w3.org/2000/svg" p-id="9494" data-spm-anchor-id="a313x.7781069.0.i14" width="200" height="200"><path d="M701.925053 951.188211l-0.538948-0.916211c-0.727579-1.266526-1.994105-2.883368-3.098947-4.311579l-0.377263-0.619789c-0.565895-0.808421-1.239579-1.670737-1.670737-2.479158l-2.775579-4.015158-0.323368-0.377263-135.949474-209.273264a112.478316 112.478316 0 0 1-16.168421-83.024842 109.783579 109.783579 0 0 1 45.190737-70.521263 104.340211 104.340211 0 0 1 105.633684-7.68V218.192842C691.685053 157.372632 737.522526 107.789474 793.842526 107.789474c56.239158 0 102.157474 49.583158 102.157474 110.48421v112.370527a81.92 81.92 0 0 1 25.653895-4.176843c26.624 0 51.792842 12.826947 69.52421 34.977685a86.366316 86.366316 0 0 1 46.592-14.44379 84.884211 84.884211 0 0 1 52.547369 18.566737c11.722105 9.162105 21.557895 21.018947 28.698947 34.789053 8.299789-2.613895 16.922947-4.042105 25.573053-4.042106 52.412632 0 95.016421 49.583158 95.016421 110.484211v293.941895c0 65.024-28.752842 136.892632-73.242948 183.18821-24.791579 25.788632-51.469474 40.070737-75.371789 40.070737H800.552421c-54.433684 0-78.874947-40.367158-98.627368-72.811789z m394.967579 18.485894c8.811789 0 30.72-14.713263 52.197052-47.292631 23.04-35.166316 36.244211-77.258105 36.244211-115.334737V504.697263c0-24.710737-15.252211-46.160842-32.633263-46.160842a23.174737 23.174737 0 0 0-10.994527 2.829474v105.741473h-0.107789c-1.239579 17.731368-15.467789 31.474526-32.633263 31.555369-17.219368 0-31.528421-14.012632-32.687158-31.528421h-0.053895V475.351579l-1.967158-25.761684c-1.697684-22.959158-16.384-41.687579-32.794947-41.687579-7.275789 0-14.740211 4.042105-20.641684 10.778947v114.364632c-0.053895 18.701474-14.713263 33.818947-32.821895 33.872842-18.054737-0.080842-32.687158-15.198316-32.741053-33.872842v-100.621474l-2.45221-11.749053c-4.042105-19.563789-17.623579-34.277053-31.447579-34.277052-9.431579 0-18.863158 6.682947-25.249685 17.542737l-1.050947 113.448421v42.657684c0 16.545684-13.123368 30.154105-29.130105 30.154105h-7.087158c-16.087579 0-29.157053-13.608421-29.157053-30.154105V219.540211l-0.188631-12.018527c0-25.465263-17.893053-46.08-40.016842-46.08-22.096842 0-39.989895 20.668632-39.989895 46.08l1.42821 330.913684c0.080842 0.997053 0.107789 2.021053 0.10779 3.045053v131.287579c-0.269474 16.896-12.476632 31.043368-28.672 33.199158a32.875789 32.875789 0 0 1-35.84-24.629895l-12.314947-37.106526a44.544 44.544 0 0 0-28.429474-19.671579 43.385263 43.385263 0 0 0-33.522526 6.952421c-20.48 14.228211-25.896421 42.900211-12.180211 64.080842l140.153263 215.390316 0.458105 0.592842 1.724632 2.640842 2.155789 3.314526c1.320421 2.155789 2.748632 4.203789 4.015158 5.793685l0.916211 1.185684 0.673684 1.482105c21.827368 36.055579 30.234947 43.843368 46.807579 43.843368h299.924211v-0.215578 0.053894z" fill="#1aaba8" p-id="9495" data-spm-anchor-id="a313x.7781069.0.i15" class=""></path><path d="M134.736842 0h269.473684a134.736842 134.736842 0 0 1 134.736842 134.736842v269.473684a134.736842 134.736842 0 0 1-134.736842 134.736842H134.736842a134.736842 134.736842 0 0 1-134.736842-134.736842V134.736842a134.736842 134.736842 0 0 1 134.736842-134.736842z m26.947369 53.894737a107.789474 107.789474 0 0 0-107.789474 107.789474v215.578947a107.789474 107.789474 0 0 0 107.789474 107.789474h215.578947a107.789474 107.789474 0 0 0 107.789474-107.789474V161.684211a107.789474 107.789474 0 0 0-107.789474-107.789474H161.684211z" fill="#1aaba8" p-id="9496" data-spm-anchor-id="a313x.7781069.0.i16" class=""></path><path d="M350.72 305.825684L257.347368 399.225263a32.336842 32.336842 0 0 1-55.215157-22.851368V189.520842a32.336842 32.336842 0 0 1 55.215157-22.851368l93.399579 93.399579a32.336842 32.336842 0 0 1 0 45.756631z" fill="#d81e06" p-id="9497" data-spm-anchor-id="a313x.7781069.0.i13" class="selected"></path></svg>