<svg t="1593451461147" class="icon" viewBox="0 0 1024 1024" version="1.1" xmlns="http://www.w3.org/2000/svg" p-id="5113" width="200" height="200"><path d="M896.4 127.9v767.6H128V127.9h768.4m4-64H124c-33.1 0-60 26.9-60 60v775.6c0 33.1 26.9 60 60 60h776.3c33.1 0 60-26.9 60-60V123.9c0.1-33.1-26.8-60-59.9-60z" fill="#00CACA" p-id="5114"></path><path d="M288.7 284v455.8c0 21.6 23.4 35.1 42 24.3l200.8-227.9c15.1-17.3 14.1-32.7 0-48.6L330.7 259.7c-18.7-10.7-42 2.7-42 24.3z" fill="#00CACA" p-id="5115"></path><path d="M545.4 284.2V740c0 21.6 23.4 35.1 42 24.3l200.8-227.9c15.1-17.3 14.1-32.7 0-48.6L587.4 259.9c-18.7-10.8-42 2.7-42 24.3z" fill="#00CACA" p-id="5116"></path></svg>