<svg class="icon" viewBox="0 0 1024 1024" xmlns="http://www.w3.org/2000/svg" width="200" height="200"><path d="M245.418667 889.344c-10.752 0-21.504-2.389333-31.402667-7.509333a69.717333 69.717333 0 0 1-38.912-62.976V233.130667c0-30.208 16.896-57.514667 43.861333-70.997334 27.136-13.482667 59.050667-10.581333 83.285334 7.509334L650.922667 431.786667a105.813333 105.813333 0 0 1 42.496 85.162666 105.813333 105.813333 0 0 1-42.496 85.162667l-363.349334 273.066667c-12.458667 9.386667-27.306667 14.165333-42.154666 14.165333z m21.674666-41.472zM254.634667 221.866667c-2.218667 0-3.925333 0.682667-5.12 1.194666-2.218667 1.194667-6.144 3.925333-6.144 9.898667v585.898667c0 0.682667 0 1.194667 1.194666 1.877333 1.024 0.512 1.706667 0.170667 2.048-0.170667l363.178667-273.237333c9.728-7.338667 15.189333-18.432 15.189333-30.549333s-5.632-23.210667-15.189333-30.549334L261.12 224.256a9.608533 9.608533 0 0 0-6.485333-2.389333z" p-id="1742" fill="#13DFC5"></path><path d="M705.194667 780.970667c-8.874667 0-17.749333-3.413333-24.405334-10.24-13.141333-13.482667-12.8-35.157333 0.682667-48.298667l174.08-169.472c1.024-1.024 2.218667-2.048 3.242667-2.901333 8.704-6.485333 13.653333-16.384 13.653333-27.306667s-4.949333-20.821333-13.653333-27.306667c-1.194667-0.853333-2.218667-1.877333-3.242667-2.901333l-172.202667-167.936c-13.482667-13.141333-13.824-34.816-0.682666-48.298667s34.816-13.653333 48.298666-0.682666l170.837334 166.570666a101.649067 101.649067 0 0 1 38.912 80.384c0 31.744-14.165333 60.757333-38.912 80.384l-172.544 167.936c-6.997333 6.826667-15.530667 10.069333-24.064 10.069334z" p-id="1743" fill="#13DFC5"></path></svg>
