<svg t="1593449739414" class="icon" viewBox="0 0 1024 1024" version="1.1" xmlns="http://www.w3.org/2000/svg" p-id="3802" width="200" height="200"><path d="M416 672A32 32 0 0 1 384 640V384a32 32 0 0 1 64 0v256a32 32 0 0 1-32 32zM640 672a31.808 31.808 0 0 1-22.464-9.216l-128-126.208a31.872 31.872 0 0 1-0.32-45.184l128-129.792a32 32 0 0 1 45.632 44.864L557.312 513.472l105.216 103.68A32.128 32.128 0 0 1 640 672z" p-id="3803"></path><path d="M512 896c-211.776 0-384-172.224-384-384s172.224-384 384-384 384 172.224 384 384-172.224 384-384 384zM512 192C335.552 192 192 335.552 192 512s143.552 320 320 320 320-143.552 320-320-143.552-320-320-320z" p-id="3804"></path></svg>