<svg t="1593449873775" class="icon" viewBox="0 0 1024 1024" version="1.1" xmlns="http://www.w3.org/2000/svg" p-id="3996" width="200" height="200"><path d="M608 672A32 32 0 0 1 576 640V384a32 32 0 0 1 64 0v256a32 32 0 0 1-32 32zM384 672a32 32 0 0 1-22.464-54.784l105.216-103.68-105.536-107.008a32 32 0 0 1 45.568-44.992l128 129.792a32 32 0 0 1-0.32 45.312l-128 126.208A32.128 32.128 0 0 1 384 672z" p-id="3997"></path><path d="M512 896c-211.776 0-384-172.224-384-384s172.224-384 384-384 384 172.224 384 384-172.224 384-384 384zM512 192C335.552 192 192 335.552 192 512s143.552 320 320 320 320-143.552 320-320-143.552-320-320-320z" p-id="3998"></path></svg>